<svg width="13" height="10" viewBox="0 0 13 10" fill="none" xmlns="http://www.w3.org/2000/svg">
<path d="M1.00039 4.79054C0.66902 4.79054 0.400391 5.05917 0.400391 5.39054C0.400391 5.72191 0.66902 5.99054 1.00039 5.99054V4.79054ZM12.4247 5.8148C12.659 5.58049 12.659 5.20059 12.4247 4.96628L8.60628 1.1479C8.37196 0.913589 7.99206 0.913589 7.75775 1.1479C7.52343 1.38222 7.52343 1.76211 7.75775 1.99643L11.1519 5.39054L7.75775 8.78465C7.52343 9.01897 7.52343 9.39887 7.75775 9.63318C7.99206 9.8675 8.37196 9.8675 8.60628 9.63318L12.4247 5.8148ZM1.00039 5.99054H12.0004V4.79054H1.00039V5.99054Z" fill="#003E52"/>
</svg>
