<svg width="19" height="23" viewBox="0 0 19 23" fill="none" xmlns="http://www.w3.org/2000/svg">
<path opacity="0.8" d="M13.4076 8V5.07273C13.4076 3.64714 13.4076 2.93434 13.1455 2.38984C12.915 1.91088 12.5471 1.52148 12.0946 1.27744C11.5802 1 10.9069 1 9.56012 1H9.43988C8.09314 1 7.41977 1 6.90538 1.27744C6.45291 1.52148 6.08504 1.91088 5.8545 2.38984C5.5924 2.93434 5.5924 3.64714 5.5924 5.07273V8M4.92607 22H14.0739C15.5134 22 16.2332 22 16.7665 21.6964C17.2352 21.4296 17.607 21.0057 17.8237 20.4913C18.0704 19.9058 18.0172 19.146 17.9109 17.6264L17.2786 8.59005C17.1855 7.26059 17.139 6.59586 16.8647 6.09224C16.6232 5.64881 16.261 5.29275 15.8254 5.07055C15.3306 4.81818 14.701 4.81818 13.4416 4.81818H5.55841C4.29904 4.81818 3.66935 4.81818 3.17462 5.07055C2.73902 5.29275 2.37682 5.64881 2.1353 6.09224C1.861 6.59586 1.81448 7.26059 1.72145 8.59005L1.08911 17.6264C0.982771 19.146 0.929602 19.9058 1.17625 20.4913C1.39299 21.0057 1.76482 21.4296 2.23349 21.6964C2.76685 22 3.48659 22 4.92607 22Z" stroke="#1B1B1B" stroke-width="1.5" stroke-linecap="round" stroke-linejoin="round"/>
</svg>
