<svg width="87" height="14" viewBox="0 0 87 14" fill="none" xmlns="http://www.w3.org/2000/svg">
<g clip-path="url(#clip0_272_38)">
<path d="M7.46012 0.378272C7.53256 0.226448 7.74868 0.226448 7.82112 0.378272L9.60998 4.12711C9.63913 4.18821 9.69722 4.23041 9.76434 4.23926L13.8825 4.7821C14.0492 4.80409 14.116 5.00962 13.994 5.12544L10.9814 7.9852C10.9323 8.03181 10.9102 8.10009 10.9225 8.16666L11.6788 12.251C11.7094 12.4164 11.5346 12.5434 11.3867 12.4632L7.73602 10.4818C7.67652 10.4495 7.60472 10.4495 7.54522 10.4818L3.8945 12.4632C3.74665 12.5434 3.57181 12.4164 3.60244 12.251L4.35873 8.16666C4.37106 8.10009 4.34887 8.03181 4.29977 7.9852L1.28721 5.12544C1.1652 5.00962 1.23198 4.80409 1.39876 4.7821L5.5169 4.23926C5.58402 4.23041 5.64211 4.18821 5.67126 4.1271L7.46012 0.378272Z" fill="#FFBE9F"/>
<path d="M25.4601 0.378272C25.5325 0.226448 25.7487 0.226448 25.8211 0.378272L27.61 4.12711C27.6391 4.18821 27.6972 4.23041 27.7643 4.23926L31.8825 4.7821C32.0492 4.80409 32.116 5.00962 31.994 5.12544L28.9814 7.9852C28.9323 8.03181 28.9102 8.10009 28.9225 8.16666L29.6788 12.251C29.7094 12.4164 29.5346 12.5434 29.3867 12.4632L25.736 10.4818C25.6765 10.4495 25.6047 10.4495 25.5452 10.4818L21.8945 12.4632C21.7466 12.5434 21.5718 12.4164 21.6024 12.251L22.3587 8.16666C22.371 8.10009 22.3489 8.03181 22.2997 7.9852L19.2872 5.12544C19.1652 5.00962 19.232 4.80409 19.3987 4.7821L23.5169 4.23926C23.584 4.23041 23.6421 4.18821 23.6712 4.1271L25.4601 0.378272Z" fill="#FFBE9F"/>
<path d="M43.4602 0.378272C43.5326 0.226448 43.7488 0.226448 43.8212 0.378272L45.6101 4.12711C45.6392 4.18821 45.6973 4.23041 45.7644 4.23926L49.8826 4.7821C50.0493 4.80409 50.1161 5.00962 49.9941 5.12544L46.9815 7.9852C46.9324 8.03181 46.9103 8.10009 46.9226 8.16666L47.6789 12.251C47.7095 12.4164 47.5347 12.5434 47.3868 12.4632L43.7361 10.4818C43.6766 10.4495 43.6048 10.4495 43.5453 10.4818L39.8946 12.4632C39.7467 12.5434 39.5719 12.4164 39.6025 12.251L40.3588 8.16666C40.3711 8.10009 40.349 8.03181 40.2998 7.9852L37.2873 5.12544C37.1653 5.00962 37.2321 4.80409 37.3988 4.7821L41.517 4.23926C41.5841 4.23041 41.6422 4.18821 41.6713 4.1271L43.4602 0.378272Z" fill="#FFBE9F"/>
<path d="M61.4602 0.378272C61.5326 0.226448 61.7488 0.226448 61.8212 0.378272L63.6101 4.12711C63.6392 4.18821 63.6973 4.23041 63.7644 4.23926L67.8826 4.7821C68.0493 4.80409 68.1161 5.00962 67.9941 5.12544L64.9815 7.9852C64.9324 8.03181 64.9103 8.10009 64.9226 8.16666L65.6789 12.251C65.7095 12.4164 65.5347 12.5434 65.3868 12.4632L61.7361 10.4818C61.6766 10.4495 61.6048 10.4495 61.5453 10.4818L57.8946 12.4632C57.7467 12.5434 57.5719 12.4164 57.6025 12.251L58.3588 8.16666C58.3711 8.10009 58.349 8.03181 58.2998 7.9852L55.2873 5.12544C55.1653 5.00962 55.2321 4.80409 55.3988 4.7821L59.517 4.23926C59.5841 4.23041 59.6422 4.18821 59.6713 4.1271L61.4602 0.378272Z" fill="#FFBE9F"/>
<path d="M79.4602 0.378272C79.5326 0.226448 79.7488 0.226448 79.8212 0.378272L81.6101 4.12711C81.6392 4.18821 81.6973 4.23041 81.7644 4.23926L85.8826 4.7821C86.0493 4.80409 86.1161 5.00962 85.9941 5.12544L82.9815 7.9852C82.9324 8.03181 82.9103 8.10009 82.9226 8.16666L83.6789 12.251C83.7095 12.4164 83.5347 12.5434 83.3868 12.4632L79.7361 10.4818C79.6766 10.4495 79.6048 10.4495 79.5453 10.4818L75.8946 12.4632C75.7467 12.5434 75.5719 12.4164 75.6025 12.251L76.3588 8.16666C76.3711 8.10009 76.349 8.03181 76.2998 7.9852L73.2873 5.12544C73.1653 5.00962 73.2321 4.80409 73.3988 4.7821L77.517 4.23926C77.5841 4.23041 77.6422 4.18821 77.6713 4.1271L79.4602 0.378272Z" fill="#FFBE9F"/>
</g>
<defs>
<clipPath id="clip0_272_38">
<rect width="86" height="14" fill="white" transform="translate(0.640625)"/>
</clipPath>
</defs>
</svg>
